<svg width="21" height="40" viewBox="0 0 21 40" fill="none" xmlns="http://www.w3.org/2000/svg">
<path d="M19.7897 18.4392L4.64014 0.639019C4.28975 0.22699 3.82201 0 3.32327 0C2.82453 0 2.35679 0.22699 2.0064 0.639019L0.890733 1.94958C0.164764 2.80355 0.164764 4.19151 0.890733 5.04419L13.6122 19.9917L0.876618 34.9558C0.526226 35.3678 0.332764 35.9171 0.332764 36.5028C0.332764 37.0891 0.526226 37.6384 0.876618 38.0508L1.99228 39.361C2.34295 39.773 2.81041 40 3.30915 40C3.8079 40 4.27564 39.773 4.62603 39.361L19.7897 21.5445C20.141 21.1312 20.3339 20.5793 20.3328 19.9927C20.3339 19.4037 20.141 18.8522 19.7897 18.4392Z" fill="#DB8892"/>
</svg>
