<svg width="20" height="40" viewBox="0 0 20 40" fill="none" xmlns="http://www.w3.org/2000/svg">
<path d="M0.543026 18.4392L15.6926 0.639019C16.043 0.22699 16.5108 0 17.0095 0C17.5082 0 17.976 0.22699 18.3264 0.639019L19.442 1.94958C20.168 2.80355 20.168 4.19151 19.442 5.04419L6.72055 19.9917L19.4561 34.9558C19.8065 35.3678 20 35.9171 20 36.5028C20 37.0891 19.8065 37.6384 19.4561 38.0508L18.3405 39.361C17.9898 39.773 17.5223 40 17.0236 40C16.5249 40 16.0571 39.773 15.7067 39.361L0.543026 21.5445C0.191805 21.1312 -0.00110435 20.5793 3.8147e-06 19.9927C-0.00110435 19.4037 0.191805 18.8522 0.543026 18.4392Z" fill="#DB8892"/>
</svg>
