<svg width="1403" height="4769" viewBox="0 0 1403 4769" fill="none" xmlns="http://www.w3.org/2000/svg">
<rect x="1152.5" y="2081.5" width="249" height="249" stroke="#C23949" stroke-opacity="0.05" stroke-width="3"/>
<rect x="1255.5" y="2022.5" width="115" height="115" stroke="#C23949" stroke-opacity="0.05" stroke-width="3"/>
<rect x="1099.5" y="2022.5" width="115" height="115" stroke="#C23949" stroke-opacity="0.05" stroke-width="3"/>
<rect x="1099.5" y="2177.5" width="115" height="115" stroke="#C23949" stroke-opacity="0.05" stroke-width="3"/>
<rect x="1255.5" y="2177.5" width="115" height="115" stroke="#C23949" stroke-opacity="0.05" stroke-width="3"/>
<rect x="54.5" y="2065.5" width="249" height="249" stroke="#C23949" stroke-opacity="0.05" stroke-width="3"/>
<rect x="157.5" y="2006.5" width="115" height="115" stroke="#C23949" stroke-opacity="0.05" stroke-width="3"/>
<rect x="1.5" y="2006.5" width="115" height="115" stroke="#C23949" stroke-opacity="0.05" stroke-width="3"/>
<rect x="1.5" y="2161.5" width="115" height="115" stroke="#C23949" stroke-opacity="0.05" stroke-width="3"/>
<rect x="157.5" y="2161.5" width="115" height="115" stroke="#C23949" stroke-opacity="0.05" stroke-width="3"/>
<rect x="107.5" y="2620.5" width="249" height="249" stroke="#C23949" stroke-opacity="0.05" stroke-width="3"/>
<rect x="210.5" y="2561.5" width="115" height="115" stroke="#C23949" stroke-opacity="0.05" stroke-width="3"/>
<rect x="54.5" y="2561.5" width="115" height="115" stroke="#C23949" stroke-opacity="0.05" stroke-width="3"/>
<rect x="54.5" y="2716.5" width="115" height="115" stroke="#C23949" stroke-opacity="0.05" stroke-width="3"/>
<rect x="210.5" y="2716.5" width="115" height="115" stroke="#C23949" stroke-opacity="0.05" stroke-width="3"/>
<rect x="1204.52" y="2436.8" width="134.98" height="134.98" stroke="#C23949" stroke-opacity="0.05" stroke-width="3"/>
<rect x="1260.92" y="2404.5" width="61.6098" height="61.6098" stroke="#C23949" stroke-opacity="0.05" stroke-width="3"/>
<rect x="1175.5" y="2404.5" width="61.6098" height="61.6098" stroke="#C23949" stroke-opacity="0.05" stroke-width="3"/>
<rect x="1175.5" y="2489.37" width="61.6098" height="61.6098" stroke="#C23949" stroke-opacity="0.05" stroke-width="3"/>
<rect x="1260.92" y="2489.37" width="61.6098" height="61.6098" stroke="#C23949" stroke-opacity="0.05" stroke-width="3"/>
<rect x="909.497" y="2624.95" width="268.003" height="268.003" stroke="#C23949" stroke-opacity="0.05" stroke-width="3"/>
<rect x="1020.26" y="2561.5" width="123.898" height="123.898" stroke="#C23949" stroke-opacity="0.05" stroke-width="3"/>
<rect x="852.5" y="2561.5" width="123.898" height="123.898" stroke="#C23949" stroke-opacity="0.05" stroke-width="3"/>
<rect x="852.5" y="2728.19" width="123.898" height="123.898" stroke="#C23949" stroke-opacity="0.05" stroke-width="3"/>
<rect x="1020.26" y="2728.19" width="123.898" height="123.898" stroke="#C23949" stroke-opacity="0.05" stroke-width="3"/>
<rect x="1152.5" y="3018.5" width="249" height="249" stroke="#C23949" stroke-opacity="0.05" stroke-width="3"/>
<rect x="1255.5" y="2959.5" width="115" height="115" stroke="#C23949" stroke-opacity="0.05" stroke-width="3"/>
<rect x="1099.5" y="2959.5" width="115" height="115" stroke="#C23949" stroke-opacity="0.05" stroke-width="3"/>
<rect x="1099.5" y="3114.5" width="115" height="115" stroke="#C23949" stroke-opacity="0.05" stroke-width="3"/>
<rect x="1255.5" y="3114.5" width="115" height="115" stroke="#C23949" stroke-opacity="0.05" stroke-width="3"/>
<rect x="54.5" y="3002.5" width="249" height="249" stroke="#C23949" stroke-opacity="0.05" stroke-width="3"/>
<rect x="157.5" y="2943.5" width="115" height="115" stroke="#C23949" stroke-opacity="0.05" stroke-width="3"/>
<rect x="1.5" y="2943.5" width="115" height="115" stroke="#C23949" stroke-opacity="0.05" stroke-width="3"/>
<rect x="1.5" y="3098.5" width="115" height="115" stroke="#C23949" stroke-opacity="0.05" stroke-width="3"/>
<rect x="157.5" y="3098.5" width="115" height="115" stroke="#C23949" stroke-opacity="0.05" stroke-width="3"/>
<rect x="107.5" y="3557.5" width="249" height="249" stroke="#C23949" stroke-opacity="0.05" stroke-width="3"/>
<rect x="210.5" y="3498.5" width="115" height="115" stroke="#C23949" stroke-opacity="0.05" stroke-width="3"/>
<rect x="54.5" y="3498.5" width="115" height="115" stroke="#C23949" stroke-opacity="0.05" stroke-width="3"/>
<rect x="54.5" y="3653.5" width="115" height="115" stroke="#C23949" stroke-opacity="0.05" stroke-width="3"/>
<rect x="210.5" y="3653.5" width="115" height="115" stroke="#C23949" stroke-opacity="0.05" stroke-width="3"/>
<rect x="1204.52" y="3373.8" width="134.98" height="134.98" stroke="#C23949" stroke-opacity="0.05" stroke-width="3"/>
<rect x="1260.92" y="3341.5" width="61.6098" height="61.6098" stroke="#C23949" stroke-opacity="0.05" stroke-width="3"/>
<rect x="1175.5" y="3341.5" width="61.6098" height="61.6098" stroke="#C23949" stroke-opacity="0.05" stroke-width="3"/>
<rect x="1175.5" y="3426.37" width="61.6098" height="61.6098" stroke="#C23949" stroke-opacity="0.05" stroke-width="3"/>
<rect x="1260.92" y="3426.37" width="61.6098" height="61.6098" stroke="#C23949" stroke-opacity="0.05" stroke-width="3"/>
<rect x="909.497" y="3561.95" width="268.003" height="268.003" stroke="#C23949" stroke-opacity="0.05" stroke-width="3"/>
<rect x="1020.26" y="3498.5" width="123.898" height="123.898" stroke="#C23949" stroke-opacity="0.05" stroke-width="3"/>
<rect x="852.5" y="3498.5" width="123.898" height="123.898" stroke="#C23949" stroke-opacity="0.05" stroke-width="3"/>
<rect x="852.5" y="3665.19" width="123.898" height="123.898" stroke="#C23949" stroke-opacity="0.05" stroke-width="3"/>
<rect x="1020.26" y="3665.19" width="123.898" height="123.898" stroke="#C23949" stroke-opacity="0.05" stroke-width="3"/>
<rect x="1152.5" y="3955.5" width="249" height="249" stroke="#C23949" stroke-opacity="0.05" stroke-width="3"/>
<rect x="1255.5" y="3896.5" width="115" height="115" stroke="#C23949" stroke-opacity="0.05" stroke-width="3"/>
<rect x="1099.5" y="3896.5" width="115" height="115" stroke="#C23949" stroke-opacity="0.05" stroke-width="3"/>
<rect x="1099.5" y="4051.5" width="115" height="115" stroke="#C23949" stroke-opacity="0.05" stroke-width="3"/>
<rect x="1255.5" y="4051.5" width="115" height="115" stroke="#C23949" stroke-opacity="0.05" stroke-width="3"/>
<rect x="54.5" y="3939.5" width="249" height="249" stroke="#C23949" stroke-opacity="0.05" stroke-width="3"/>
<rect x="157.5" y="3880.5" width="115" height="115" stroke="#C23949" stroke-opacity="0.05" stroke-width="3"/>
<rect x="1.5" y="3880.5" width="115" height="115" stroke="#C23949" stroke-opacity="0.05" stroke-width="3"/>
<rect x="1.5" y="4035.5" width="115" height="115" stroke="#C23949" stroke-opacity="0.05" stroke-width="3"/>
<rect x="157.5" y="4035.5" width="115" height="115" stroke="#C23949" stroke-opacity="0.05" stroke-width="3"/>
<rect x="107.5" y="4494.5" width="249" height="249" stroke="#C23949" stroke-opacity="0.05" stroke-width="3"/>
<rect x="210.5" y="4435.5" width="115" height="115" stroke="#C23949" stroke-opacity="0.05" stroke-width="3"/>
<rect x="54.5" y="4435.5" width="115" height="115" stroke="#C23949" stroke-opacity="0.05" stroke-width="3"/>
<rect x="54.5" y="4590.5" width="115" height="115" stroke="#C23949" stroke-opacity="0.05" stroke-width="3"/>
<rect x="210.5" y="4590.5" width="115" height="115" stroke="#C23949" stroke-opacity="0.05" stroke-width="3"/>
<rect x="1204.52" y="4310.8" width="134.98" height="134.98" stroke="#C23949" stroke-opacity="0.05" stroke-width="3"/>
<rect x="1260.92" y="4278.5" width="61.6098" height="61.6098" stroke="#C23949" stroke-opacity="0.05" stroke-width="3"/>
<rect x="1175.5" y="4278.5" width="61.6098" height="61.6098" stroke="#C23949" stroke-opacity="0.05" stroke-width="3"/>
<rect x="1175.5" y="4363.37" width="61.6098" height="61.6098" stroke="#C23949" stroke-opacity="0.05" stroke-width="3"/>
<rect x="1260.92" y="4363.37" width="61.6098" height="61.6098" stroke="#C23949" stroke-opacity="0.05" stroke-width="3"/>
<rect x="909.497" y="4498.95" width="268.003" height="268.003" stroke="#C23949" stroke-opacity="0.05" stroke-width="3"/>
<rect x="1020.26" y="4435.5" width="123.898" height="123.898" stroke="#C23949" stroke-opacity="0.05" stroke-width="3"/>
<rect x="852.5" y="4435.5" width="123.898" height="123.898" stroke="#C23949" stroke-opacity="0.05" stroke-width="3"/>
<rect x="852.5" y="4602.19" width="123.898" height="123.898" stroke="#C23949" stroke-opacity="0.05" stroke-width="3"/>
<rect x="1020.26" y="4602.19" width="123.898" height="123.898" stroke="#C23949" stroke-opacity="0.05" stroke-width="3"/>
<rect x="1151.5" y="1072.5" width="251" height="251" stroke="#DB8892" stroke-opacity="0.6"/>
<rect x="1254.5" y="1013.5" width="117" height="117" stroke="#DB8892" stroke-opacity="0.6"/>
<rect x="1098.5" y="1013.5" width="117" height="117" stroke="#DB8892" stroke-opacity="0.6"/>
<rect x="1098.5" y="1168.5" width="117" height="117" stroke="#DB8892" stroke-opacity="0.6"/>
<rect x="1254.5" y="1168.5" width="117" height="117" stroke="#DB8892" stroke-opacity="0.6"/>
<rect x="53.5" y="1056.5" width="251" height="251" stroke="#DB8892" stroke-opacity="0.6"/>
<rect x="156.5" y="997.5" width="117" height="117" stroke="#DB8892" stroke-opacity="0.6"/>
<rect x="0.5" y="997.5" width="117" height="117" stroke="#DB8892" stroke-opacity="0.6"/>
<rect x="0.5" y="1152.5" width="117" height="117" stroke="#DB8892" stroke-opacity="0.6"/>
<rect x="156.5" y="1152.5" width="117" height="117" stroke="#DB8892" stroke-opacity="0.6"/>
<rect x="106.5" y="1611.5" width="251" height="251" stroke="#DB8892" stroke-opacity="0.6"/>
<rect x="209.5" y="1552.5" width="117" height="117" stroke="#DB8892" stroke-opacity="0.6"/>
<rect x="53.5" y="1552.5" width="117" height="117" stroke="#DB8892" stroke-opacity="0.6"/>
<rect x="53.5" y="1707.5" width="117" height="117" stroke="#DB8892" stroke-opacity="0.6"/>
<rect x="209.5" y="1707.5" width="117" height="117" stroke="#DB8892" stroke-opacity="0.6"/>
<rect x="1203.52" y="1427.8" width="136.98" height="136.98" stroke="#DB8892" stroke-opacity="0.6"/>
<rect x="1259.92" y="1395.5" width="63.6098" height="63.6098" stroke="#DB8892" stroke-opacity="0.6"/>
<rect x="1174.5" y="1395.5" width="63.6098" height="63.6098" stroke="#DB8892" stroke-opacity="0.6"/>
<rect x="1174.5" y="1480.37" width="63.6098" height="63.6098" stroke="#DB8892" stroke-opacity="0.6"/>
<rect x="1259.92" y="1480.37" width="63.6098" height="63.6098" stroke="#DB8892" stroke-opacity="0.6"/>
<rect x="908.497" y="1615.95" width="270.003" height="270.003" stroke="#DB8892" stroke-opacity="0.6"/>
<rect x="1019.26" y="1552.5" width="125.898" height="125.898" stroke="#DB8892" stroke-opacity="0.6"/>
<rect x="851.5" y="1552.5" width="125.898" height="125.898" stroke="#DB8892" stroke-opacity="0.6"/>
<rect x="851.5" y="1719.19" width="125.898" height="125.898" stroke="#DB8892" stroke-opacity="0.6"/>
<rect x="1019.26" y="1719.19" width="125.898" height="125.898" stroke="#DB8892" stroke-opacity="0.6"/>
<rect x="539.979" y="1109.77" width="410.183" height="410.183" stroke="#DB8892" stroke-opacity="0.6"/>
<rect x="708.042" y="1013.5" width="191.538" height="191.538" stroke="#DB8892" stroke-opacity="0.6"/>
<rect x="453.5" y="1013.5" width="191.538" height="191.538" stroke="#DB8892" stroke-opacity="0.6"/>
<rect x="453.5" y="1266.41" width="191.538" height="191.538" stroke="#DB8892" stroke-opacity="0.6"/>
<rect x="708.042" y="1266.41" width="191.538" height="191.538" stroke="#DB8892" stroke-opacity="0.6"/>
<rect x="1152.5" y="76.5" width="249" height="249" stroke="#C23949" stroke-opacity="0.05" stroke-width="3"/>
<rect x="1255.5" y="17.5" width="115" height="115" stroke="#C23949" stroke-opacity="0.05" stroke-width="3"/>
<rect x="1099.5" y="17.5" width="115" height="115" stroke="#C23949" stroke-opacity="0.05" stroke-width="3"/>
<rect x="1099.5" y="172.5" width="115" height="115" stroke="#C23949" stroke-opacity="0.05" stroke-width="3"/>
<rect x="1255.5" y="172.5" width="115" height="115" stroke="#C23949" stroke-opacity="0.05" stroke-width="3"/>
<rect x="54.5" y="60.5" width="249" height="249" stroke="#C23949" stroke-opacity="0.05" stroke-width="3"/>
<rect x="157.5" y="1.5" width="115" height="115" stroke="#C23949" stroke-opacity="0.05" stroke-width="3"/>
<rect x="1.5" y="1.5" width="115" height="115" stroke="#C23949" stroke-opacity="0.05" stroke-width="3"/>
<rect x="1.5" y="156.5" width="115" height="115" stroke="#C23949" stroke-opacity="0.05" stroke-width="3"/>
<rect x="157.5" y="156.5" width="115" height="115" stroke="#C23949" stroke-opacity="0.05" stroke-width="3"/>
<rect x="107.5" y="615.5" width="249" height="249" stroke="#C23949" stroke-opacity="0.05" stroke-width="3"/>
<rect x="210.5" y="556.5" width="115" height="115" stroke="#C23949" stroke-opacity="0.05" stroke-width="3"/>
<rect x="54.5" y="556.5" width="115" height="115" stroke="#C23949" stroke-opacity="0.05" stroke-width="3"/>
<rect x="54.5" y="711.5" width="115" height="115" stroke="#C23949" stroke-opacity="0.05" stroke-width="3"/>
<rect x="210.5" y="711.5" width="115" height="115" stroke="#C23949" stroke-opacity="0.05" stroke-width="3"/>
<rect x="1204.52" y="431.805" width="134.98" height="134.98" stroke="#C23949" stroke-opacity="0.05" stroke-width="3"/>
<rect x="1260.92" y="399.5" width="61.6098" height="61.6098" stroke="#C23949" stroke-opacity="0.05" stroke-width="3"/>
<rect x="1175.5" y="399.5" width="61.6098" height="61.6098" stroke="#C23949" stroke-opacity="0.05" stroke-width="3"/>
<rect x="1175.5" y="484.369" width="61.6098" height="61.6098" stroke="#C23949" stroke-opacity="0.05" stroke-width="3"/>
<rect x="1260.92" y="484.369" width="61.6098" height="61.6098" stroke="#C23949" stroke-opacity="0.05" stroke-width="3"/>
<rect x="909.497" y="619.949" width="268.003" height="268.003" stroke="#C23949" stroke-opacity="0.05" stroke-width="3"/>
<rect x="1020.26" y="556.5" width="123.898" height="123.898" stroke="#C23949" stroke-opacity="0.05" stroke-width="3"/>
<rect x="852.5" y="556.5" width="123.898" height="123.898" stroke="#C23949" stroke-opacity="0.05" stroke-width="3"/>
<rect x="852.5" y="723.188" width="123.898" height="123.898" stroke="#C23949" stroke-opacity="0.05" stroke-width="3"/>
<rect x="1020.26" y="723.188" width="123.898" height="123.898" stroke="#C23949" stroke-opacity="0.05" stroke-width="3"/>
<rect x="540.979" y="113.769" width="408.183" height="408.183" stroke="#C23949" stroke-opacity="0.05" stroke-width="3"/>
<rect x="709.042" y="17.5" width="189.538" height="189.538" stroke="#C23949" stroke-opacity="0.05" stroke-width="3"/>
<rect x="454.5" y="17.5" width="189.538" height="189.538" stroke="#C23949" stroke-opacity="0.05" stroke-width="3"/>
<rect x="454.5" y="270.41" width="189.538" height="189.538" stroke="#C23949" stroke-opacity="0.05" stroke-width="3"/>
<rect x="709.042" y="270.41" width="189.538" height="189.538" stroke="#C23949" stroke-opacity="0.05" stroke-width="3"/>
</svg>
