<svg width="40" height="22" viewBox="0 0 40 22" fill="none" xmlns="http://www.w3.org/2000/svg">
<path d="M38.3336 21.0265H1.66683C1.21514 21.0265 0.824474 21.0507 0.494648 21.0988C0.164822 21.1469 0 21.204 0 21.2699V21.7566C0 21.8226 0.164822 21.8796 0.494739 21.9278C0.824839 21.9759 1.2155 22 1.66692 22H38.3337C38.785 22 39.1755 21.9759 39.5055 21.9278C39.8352 21.8796 40 21.8226 40 21.7566V21.2699C40 21.204 39.8358 21.1469 39.5055 21.0988C39.1755 21.0507 38.7853 21.0265 38.3336 21.0265Z" fill="#C23949"/>
<path d="M39.5054 0.0722685C39.1755 0.0240939 38.785 0 38.3336 0H1.66683C1.21514 0 0.824474 0.0240939 0.494648 0.0722685C0.164822 0.120416 0 0.177461 0 0.24335V0.730117C0 0.796032 0.164822 0.853037 0.494739 0.901225C0.824839 0.949413 1.2155 0.973467 1.66692 0.973467H38.3337C38.785 0.973467 39.1755 0.9494 39.5055 0.901225C39.8352 0.85305 40 0.796032 40 0.730117V0.24335C39.9999 0.177461 39.8354 0.120416 39.5054 0.0722685Z" fill="#C23949"/>
<path d="M38.3336 10.5133H1.66683C1.21514 10.5133 0.824474 10.5374 0.494648 10.5856C0.164822 10.6337 0 10.6908 0 10.7567V11.2434C0 11.3093 0.164822 11.3664 0.494739 11.4145C0.824839 11.4626 1.2155 11.4868 1.66692 11.4868H38.3337C38.785 11.4868 39.1755 11.4626 39.5055 11.4145C39.8352 11.3664 40 11.3093 40 11.2434V10.7567C40 10.6908 39.8352 10.6337 39.5055 10.5856C39.1755 10.5374 38.7853 10.5133 38.3336 10.5133Z" fill="#C23949"/>
</svg>
