<svg width="75" height="78" viewBox="0 0 75 78" fill="none" xmlns="http://www.w3.org/2000/svg">
<path d="M37.4953 0.812012C16.7906 0.812012 0 18.3425 0 39.968C0 57.2645 10.7438 71.9383 25.65 77.1204C27.525 77.4811 28.2094 76.2721 28.2094 75.2338C28.2094 74.3026 28.1766 71.8408 28.1578 68.5745C17.7281 70.9389 15.525 63.3241 15.525 63.3241C13.8234 58.8001 11.3625 57.596 11.3625 57.596C7.95469 55.1683 11.6156 55.217 11.6156 55.217C15.3797 55.4949 17.3578 59.2535 17.3578 59.2535C20.7047 65.2351 26.1375 63.5094 28.275 62.5051C28.6125 59.975 29.5828 58.2493 30.6562 57.2694C22.3312 56.2798 13.575 52.9209 13.575 37.9205C13.575 33.6451 15.0375 30.1498 17.4375 27.41C17.0484 26.4204 15.7641 22.4375 17.8031 17.0506C17.8031 17.0506 20.9531 15.9976 28.1156 21.0628C31.1063 20.195 34.3125 19.7611 37.5047 19.7465C40.6875 19.766 43.8984 20.195 46.8937 21.0676C54.0516 16.0025 57.1969 17.0555 57.1969 17.0555C59.2406 22.4473 57.9562 26.4253 57.5719 27.4149C59.9766 30.1546 61.425 33.65 61.425 37.9254C61.425 52.9648 52.6594 56.2749 44.3062 57.245C45.6516 58.454 46.8516 60.8428 46.8516 64.4941C46.8516 69.7299 46.8047 73.9516 46.8047 75.2338C46.8047 76.2819 47.4797 77.5006 49.3828 77.1155C64.2656 71.9285 75 57.2596 75 39.968C75 18.3425 58.2094 0.812012 37.4953 0.812012Z" fill="#F4DADD"/>
</svg>
