<svg width="78" height="78" viewBox="0 0 78 78" fill="none" xmlns="http://www.w3.org/2000/svg">
<path d="M17.4428 24.375H0V78H17.4428V24.375Z" fill="#F4DADD"/>
<path d="M64.9545 25.0039C64.7693 24.9454 64.5938 24.882 64.3988 24.8284C64.1647 24.7747 63.9307 24.7309 63.6919 24.6919C62.7656 24.5066 61.7516 24.375 60.5621 24.375C50.3929 24.375 43.9433 31.7704 41.8178 34.6271V24.375H24.375V78H41.8178V48.75C41.8178 48.75 54.9998 30.3907 60.5621 43.875C60.5621 55.9114 60.5621 78 60.5621 78H78V41.8129C78 33.7106 72.4474 26.9588 64.9545 25.0039Z" fill="#F4DADD"/>
<path d="M8.53125 17.0625C13.2429 17.0625 17.0625 13.2429 17.0625 8.53125C17.0625 3.81957 13.2429 0 8.53125 0C3.81957 0 0 3.81957 0 8.53125C0 13.2429 3.81957 17.0625 8.53125 17.0625Z" fill="#F4DADD"/>
</svg>
