<svg width="240" height="294" viewBox="0 0 240 294" fill="none" xmlns="http://www.w3.org/2000/svg">
<rect x="69" y="32.4363" width="130" height="127.564" stroke="white" stroke-width="4"/>
<rect x="124" y="2" width="59" height="57.8545" stroke="white" stroke-width="4"/>
<rect x="41" y="2" width="59" height="57.8545" stroke="white" stroke-width="4"/>
<rect x="41" y="82.509" width="59" height="57.8545" stroke="white" stroke-width="4"/>
<rect x="124" y="82.509" width="59" height="57.8545" stroke="white" stroke-width="4"/>
<path d="M60.6562 238.35V202.344H52.3945V245H80.6367V238.35H60.6562ZM87.0527 228.857V229.473C87.0527 231.797 87.3848 233.945 88.0488 235.918C88.7129 237.871 89.6895 239.57 90.9785 241.016C92.248 242.461 93.8105 243.594 95.666 244.414C97.541 245.215 99.6699 245.615 102.053 245.615C104.416 245.615 106.525 245.215 108.381 244.414C110.236 243.594 111.799 242.461 113.068 241.016C114.338 239.57 115.305 237.871 115.969 235.918C116.633 233.945 116.965 231.797 116.965 229.473V228.857C116.965 226.553 116.633 224.424 115.969 222.471C115.305 220.498 114.338 218.789 113.068 217.344C111.779 215.898 110.207 214.766 108.352 213.945C106.496 213.125 104.377 212.715 101.994 212.715C99.6113 212.715 97.4922 213.125 95.6367 213.945C93.8008 214.766 92.248 215.898 90.9785 217.344C89.6895 218.789 88.7129 220.498 88.0488 222.471C87.3848 224.424 87.0527 226.553 87.0527 228.857ZM95.1973 229.473V228.857C95.1973 227.568 95.3242 226.348 95.5781 225.195C95.832 224.043 96.2324 223.027 96.7793 222.148C97.3262 221.27 98.0293 220.576 98.8887 220.068C99.748 219.561 100.783 219.307 101.994 219.307C103.225 219.307 104.27 219.561 105.129 220.068C105.988 220.576 106.691 221.27 107.238 222.148C107.766 223.027 108.156 224.043 108.41 225.195C108.664 226.348 108.791 227.568 108.791 228.857V229.473C108.791 230.801 108.664 232.051 108.41 233.223C108.156 234.375 107.766 235.381 107.238 236.24C106.691 237.119 105.988 237.812 105.129 238.32C104.27 238.828 103.244 239.082 102.053 239.082C100.822 239.082 99.7676 238.828 98.8887 238.32C98.0293 237.812 97.3262 237.119 96.7793 236.24C96.2324 235.381 95.832 234.375 95.5781 233.223C95.3242 232.051 95.1973 230.801 95.1973 229.473ZM123.381 228.916V229.531C123.381 231.836 123.674 233.975 124.26 235.947C124.865 237.9 125.725 239.59 126.838 241.016C127.951 242.441 129.289 243.564 130.852 244.385C132.434 245.186 134.211 245.586 136.184 245.586C137.18 245.586 138.107 245.479 138.967 245.264C139.846 245.049 140.646 244.746 141.369 244.355C141.857 244.082 142.316 243.77 142.746 243.418C143.176 243.066 143.586 242.676 143.977 242.246V244.062C143.977 245.137 143.82 246.104 143.508 246.963C143.215 247.822 142.785 248.545 142.219 249.131C141.594 249.775 140.812 250.264 139.875 250.596C138.957 250.928 137.902 251.094 136.711 251.094C135.969 251.094 135.246 251.016 134.543 250.859C133.859 250.723 133.195 250.508 132.551 250.215C131.887 249.922 131.252 249.541 130.646 249.072C130.041 248.623 129.475 248.096 128.947 247.49L125.285 252.441C125.969 253.32 126.789 254.072 127.746 254.697C128.703 255.342 129.719 255.869 130.793 256.279C131.867 256.689 132.951 256.992 134.045 257.188C135.139 257.383 136.164 257.48 137.121 257.48C139.348 257.48 141.379 257.178 143.215 256.572C145.07 255.986 146.662 255.117 147.99 253.965C149.299 252.812 150.314 251.396 151.037 249.717C151.779 248.037 152.15 246.123 152.15 243.975V213.301H144.738L144.416 216.318C144.025 215.83 143.596 215.391 143.127 215C142.658 214.59 142.15 214.238 141.604 213.945C140.881 213.535 140.07 213.232 139.172 213.037C138.293 212.822 137.316 212.715 136.242 212.715C134.25 212.715 132.463 213.105 130.881 213.887C129.299 214.668 127.951 215.771 126.838 217.197C125.725 218.623 124.865 220.332 124.26 222.324C123.674 224.316 123.381 226.514 123.381 228.916ZM131.555 229.531V228.916C131.555 227.588 131.691 226.348 131.965 225.195C132.238 224.023 132.658 222.998 133.225 222.119C133.771 221.26 134.465 220.586 135.305 220.098C136.145 219.59 137.141 219.336 138.293 219.336C138.918 219.336 139.494 219.395 140.021 219.512C140.568 219.629 141.066 219.795 141.516 220.01C142.043 220.264 142.512 220.596 142.922 221.006C143.332 221.416 143.684 221.895 143.977 222.441V235.859C143.703 236.348 143.381 236.787 143.01 237.178C142.639 237.568 142.209 237.9 141.721 238.174C141.252 238.428 140.725 238.623 140.139 238.76C139.572 238.896 138.938 238.965 138.234 238.965C137.082 238.965 136.086 238.721 135.246 238.232C134.406 237.744 133.713 237.07 133.166 236.211C132.619 235.371 132.209 234.385 131.936 233.252C131.682 232.1 131.555 230.859 131.555 229.531ZM184.025 229.15V202.344H175.764L157.834 230.645L158.156 235.742H175.881V245H184.025V235.742H188.977V229.15H184.025ZM165.832 229.15L175.09 214.707L175.881 213.301V229.15H165.832Z" fill="white"/>
<path d="M8.56934 285.085V283.705H3.22559V279.592H9.37793V278.203H1.59961V291H9.45703V289.62H3.22559V285.085H8.56934ZM22.1555 291V278.203H20.5119L20.4855 287.748L15.5197 278.203H13.8674V291H15.5109L15.5373 281.438L20.5031 291H22.1555ZM35.3813 279.592V278.203H25.8891V279.592H29.8441V291H31.4262V279.592H35.3813ZM43.5973 285.779L46.1109 291H47.8248L47.8336 290.895L45.1178 285.428C45.4693 285.275 45.7916 285.091 46.0846 284.874C46.3775 284.657 46.6295 284.408 46.8404 284.127C47.0514 283.846 47.2154 283.532 47.3326 283.187C47.4557 282.841 47.5172 282.46 47.5172 282.044C47.5172 281.399 47.4029 280.84 47.1744 280.365C46.9518 279.885 46.6441 279.486 46.2516 279.17C45.8531 278.854 45.3902 278.616 44.8629 278.458C44.3355 278.3 43.773 278.215 43.1754 278.203H39.4225V291H41.0396V285.779H43.5973ZM41.0396 284.443V279.539H43.1754C43.568 279.545 43.9283 279.601 44.2564 279.706C44.5904 279.812 44.8775 279.967 45.1178 280.172C45.358 280.383 45.5455 280.644 45.6803 280.954C45.815 281.259 45.8824 281.616 45.8824 282.026C45.8824 282.413 45.8121 282.756 45.6715 283.055C45.5309 283.348 45.3404 283.597 45.1002 283.802C44.8541 284.007 44.5699 284.165 44.2477 284.276C43.9254 284.382 43.5826 284.438 43.2193 284.443H41.0396ZM59.0115 285.085V283.705H53.6678V279.592H59.8201V278.203H52.0418V291H59.8992V289.62H53.6678V285.085H59.0115ZM72.8613 289.321L72.835 284.628H68.6865V285.999H71.2881L71.2705 288.873C71.1357 289.066 70.9688 289.225 70.7695 289.348C70.5703 289.465 70.3564 289.559 70.1279 289.629C69.8994 289.699 69.6621 289.746 69.416 289.77C69.1758 289.793 68.9443 289.802 68.7217 289.796C68.335 289.79 67.9893 289.723 67.6846 289.594C67.3799 289.459 67.1133 289.28 66.8848 289.058C66.6504 288.835 66.4512 288.577 66.2871 288.284C66.123 287.991 65.9883 287.681 65.8828 287.353C65.7773 287.024 65.6982 286.69 65.6455 286.351C65.5986 286.005 65.5723 285.671 65.5664 285.349V283.846C65.5664 283.529 65.5869 283.201 65.6279 282.861C65.6689 282.521 65.7363 282.188 65.8301 281.859C65.9238 281.531 66.0439 281.221 66.1904 280.928C66.3369 280.629 66.5215 280.368 66.7441 280.146C66.9668 279.923 67.2275 279.747 67.5264 279.618C67.8252 279.483 68.168 279.416 68.5547 279.416C68.959 279.416 69.3135 279.48 69.6182 279.609C69.9229 279.732 70.1865 279.905 70.4092 280.128C70.626 280.351 70.8018 280.62 70.9365 280.937C71.0713 281.247 71.1709 281.587 71.2354 281.956H72.8438C72.791 281.358 72.6504 280.819 72.4219 280.339C72.1934 279.853 71.8916 279.437 71.5166 279.091C71.1416 278.751 70.7021 278.49 70.1982 278.309C69.6943 278.121 69.1436 278.027 68.5459 278.027C68.0068 278.027 67.5205 278.106 67.0869 278.265C66.6533 278.423 66.2666 278.637 65.9268 278.906C65.5811 279.182 65.2852 279.507 65.0391 279.882C64.793 280.251 64.5879 280.652 64.4238 281.086C64.2598 281.52 64.1367 281.974 64.0547 282.448C63.9785 282.917 63.9375 283.389 63.9316 283.863V285.349C63.9375 285.829 63.9844 286.307 64.0723 286.781C64.166 287.25 64.3037 287.698 64.4854 288.126C64.6611 288.56 64.8809 288.961 65.1445 289.33C65.4082 289.699 65.7158 290.019 66.0674 290.288C66.4189 290.563 66.8145 290.78 67.2539 290.938C67.6992 291.091 68.1855 291.17 68.7129 291.176C69.2344 291.182 69.7324 291.123 70.207 291C70.6816 290.883 71.124 290.701 71.5342 290.455C71.7744 290.314 72.0059 290.15 72.2285 289.963C72.4512 289.77 72.6621 289.556 72.8613 289.321ZM83.301 287.687L84.3117 291H85.9289L81.8684 278.203H80.5061L76.3752 291H78.0012L79.0295 287.687H83.301ZM79.4689 286.271L81.1828 280.717L82.8703 286.271H79.4689ZM94.0395 285.779L96.5531 291H98.267L98.2758 290.895L95.56 285.428C95.9115 285.275 96.2338 285.091 96.5268 284.874C96.8197 284.657 97.0717 284.408 97.2826 284.127C97.4936 283.846 97.6576 283.532 97.7748 283.187C97.8979 282.841 97.9594 282.46 97.9594 282.044C97.9594 281.399 97.8451 280.84 97.6166 280.365C97.3939 279.885 97.0863 279.486 96.6937 279.17C96.2953 278.854 95.8324 278.616 95.3051 278.458C94.7777 278.3 94.2152 278.215 93.6176 278.203H89.8646V291H91.4818V285.779H94.0395ZM91.4818 284.443V279.539H93.6176C94.0102 279.545 94.3705 279.601 94.6986 279.706C95.0326 279.812 95.3197 279.967 95.56 280.172C95.8002 280.383 95.9877 280.644 96.1225 280.954C96.2572 281.259 96.3246 281.616 96.3246 282.026C96.3246 282.413 96.2543 282.756 96.1137 283.055C95.973 283.348 95.7826 283.597 95.5424 283.802C95.2963 284.007 95.0121 284.165 94.6898 284.276C94.3676 284.382 94.0248 284.438 93.6615 284.443H91.4818ZM121.721 287.766C121.721 288.117 121.645 288.422 121.493 288.68C121.341 288.932 121.144 289.14 120.904 289.304C120.664 289.474 120.388 289.6 120.078 289.682C119.773 289.758 119.463 289.796 119.146 289.796C118.748 289.796 118.379 289.743 118.039 289.638C117.705 289.526 117.409 289.362 117.151 289.146C116.893 288.935 116.682 288.677 116.518 288.372C116.354 288.062 116.246 287.707 116.193 287.309H114.532C114.55 287.859 114.67 288.36 114.892 288.812C115.121 289.257 115.429 289.646 115.815 289.98C116.249 290.367 116.759 290.663 117.345 290.868C117.936 291.073 118.537 291.176 119.146 291.176C119.656 291.176 120.166 291.105 120.676 290.965C121.185 290.818 121.642 290.602 122.047 290.314C122.451 290.033 122.779 289.679 123.031 289.251C123.289 288.823 123.418 288.322 123.418 287.748C123.418 287.18 123.298 286.679 123.057 286.245C122.823 285.812 122.512 285.445 122.126 285.146C121.733 284.824 121.3 284.561 120.825 284.355C120.35 284.145 119.876 283.966 119.401 283.819C119.114 283.731 118.806 283.629 118.478 283.512C118.156 283.395 117.857 283.248 117.582 283.072C117.301 282.896 117.069 282.683 116.887 282.431C116.706 282.173 116.612 281.859 116.606 281.49C116.606 281.15 116.674 280.852 116.808 280.594C116.949 280.336 117.137 280.119 117.371 279.943C117.599 279.768 117.86 279.636 118.153 279.548C118.452 279.46 118.757 279.416 119.067 279.416C119.454 279.416 119.8 279.478 120.104 279.601C120.415 279.718 120.681 279.885 120.904 280.102C121.127 280.318 121.305 280.579 121.44 280.884C121.575 281.183 121.666 281.517 121.713 281.886H123.383C123.371 281.3 123.245 280.77 123.005 280.295C122.764 279.82 122.445 279.416 122.047 279.082C121.648 278.748 121.191 278.49 120.676 278.309C120.16 278.121 119.624 278.027 119.067 278.027C118.563 278.027 118.062 278.106 117.564 278.265C117.066 278.417 116.621 278.643 116.228 278.941C115.836 279.24 115.516 279.606 115.27 280.04C115.03 280.474 114.91 280.966 114.91 281.517C114.91 282.067 115.03 282.548 115.27 282.958C115.516 283.362 115.833 283.714 116.22 284.013C116.6 284.306 117.022 284.558 117.485 284.769C117.954 284.974 118.414 285.149 118.865 285.296C119.176 285.396 119.498 285.507 119.832 285.63C120.172 285.753 120.482 285.905 120.763 286.087C121.045 286.274 121.273 286.503 121.449 286.772C121.631 287.042 121.721 287.373 121.721 287.766ZM134.675 285.085V283.705H129.331V279.592H135.483V278.203H127.705V291H135.562V289.62H129.331V285.085H134.675ZM142.029 278.203H140.017V291H141.599V285.894L141.467 280.734L143.638 287.44H144.57L146.934 280.55L146.802 285.894V291H148.384V278.203H146.363L144.113 284.602L142.029 278.203ZM167.242 285.867H169.764C170.338 285.861 170.88 285.773 171.39 285.604C171.906 285.434 172.357 285.188 172.744 284.865C173.13 284.543 173.435 284.147 173.658 283.679C173.886 283.204 174.001 282.659 174.001 282.044C174.001 281.429 173.886 280.884 173.658 280.409C173.435 279.935 173.13 279.536 172.744 279.214C172.357 278.892 171.906 278.646 171.39 278.476C170.88 278.306 170.338 278.215 169.764 278.203H165.616V291H167.242V285.867ZM167.242 284.531V279.539H169.764C170.139 279.545 170.485 279.606 170.801 279.724C171.124 279.841 171.402 280.008 171.636 280.225C171.865 280.441 172.044 280.705 172.172 281.016C172.307 281.326 172.375 281.675 172.375 282.062C172.375 282.448 172.307 282.794 172.172 283.099C172.044 283.397 171.862 283.652 171.628 283.863C171.393 284.074 171.118 284.238 170.801 284.355C170.485 284.467 170.139 284.525 169.764 284.531H167.242ZM184.185 287.687L185.196 291H186.813L182.753 278.203H181.39L177.26 291H178.886L179.914 287.687H184.185ZM180.353 286.271L182.067 280.717L183.755 286.271H180.353ZM194.924 285.779L197.438 291H199.151L199.16 290.895L196.444 285.428C196.796 285.275 197.118 285.091 197.411 284.874C197.704 284.657 197.956 284.408 198.167 284.127C198.378 283.846 198.542 283.532 198.659 283.187C198.782 282.841 198.844 282.46 198.844 282.044C198.844 281.399 198.729 280.84 198.501 280.365C198.278 279.885 197.971 279.486 197.578 279.17C197.18 278.854 196.717 278.616 196.189 278.458C195.662 278.3 195.1 278.215 194.502 278.203H190.749V291H192.366V285.779H194.924ZM192.366 284.443V279.539H194.502C194.895 279.545 195.255 279.601 195.583 279.706C195.917 279.812 196.204 279.967 196.444 280.172C196.685 280.383 196.872 280.644 197.007 280.954C197.142 281.259 197.209 281.616 197.209 282.026C197.209 282.413 197.139 282.756 196.998 283.055C196.857 283.348 196.667 283.597 196.427 283.802C196.181 284.007 195.896 284.165 195.574 284.276C195.252 284.382 194.909 284.438 194.546 284.443H192.366ZM209.406 287.687L210.417 291H212.034L207.974 278.203H206.612L202.481 291H204.107L205.135 287.687H209.406ZM205.574 286.271L207.288 280.717L208.976 286.271H205.574ZM220.145 285.779L222.659 291H224.372L224.381 290.895L221.665 285.428C222.017 285.275 222.339 285.091 222.632 284.874C222.925 284.657 223.177 284.408 223.388 284.127C223.599 283.846 223.763 283.532 223.88 283.187C224.003 282.841 224.065 282.46 224.065 282.044C224.065 281.399 223.951 280.84 223.722 280.365C223.499 279.885 223.192 279.486 222.799 279.17C222.401 278.854 221.938 278.616 221.411 278.458C220.883 278.3 220.321 278.215 219.723 278.203H215.97V291H217.587V285.779H220.145ZM217.587 284.443V279.539H219.723C220.116 279.545 220.476 279.601 220.804 279.706C221.138 279.812 221.425 279.967 221.665 280.172C221.906 280.383 222.093 280.644 222.228 280.954C222.363 281.259 222.43 281.616 222.43 282.026C222.43 282.413 222.36 282.756 222.219 283.055C222.079 283.348 221.888 283.597 221.648 283.802C221.402 284.007 221.118 284.165 220.795 284.276C220.473 284.382 220.13 284.438 219.767 284.443H217.587Z" fill="white"/>
</svg>
