<svg width="50" height="76" viewBox="0 0 50 76" fill="none" xmlns="http://www.w3.org/2000/svg">
<rect x="9.18848" y="9.98553" width="40.3115" height="39.5145" stroke="#C23949"/>
<rect x="26.0737" y="0.5" width="18.3443" height="17.9711" stroke="#C23949"/>
<rect x="0.5" y="0.5" width="18.3443" height="17.9711" stroke="#C23949"/>
<rect x="0.5" y="25.4196" width="18.3443" height="17.9711" stroke="#C23949"/>
<rect x="26.0737" y="25.4196" width="18.3443" height="17.9711" stroke="#C23949"/>
<path d="M12.6562 71.1719V60.625H11.7188V72H18.4453V71.1719H12.6562ZM20.6406 67.6484V67.8984C20.6406 68.4766 20.7266 69.0234 20.8984 69.5391C21.0703 70.0547 21.3177 70.5052 21.6406 70.8906C21.9635 71.2812 22.3594 71.5911 22.8281 71.8203C23.2969 72.0443 23.8281 72.1562 24.4219 72.1562C25.0104 72.1562 25.5365 72.0417 26 71.8125C26.4688 71.5833 26.862 71.276 27.1797 70.8906C27.5026 70.5 27.75 70.0495 27.9219 69.5391C28.0938 69.0234 28.1797 68.4766 28.1797 67.8984V67.6484C28.1797 67.0703 28.0938 66.5234 27.9219 66.0078C27.75 65.4922 27.5026 65.0417 27.1797 64.6562C26.8568 64.2656 26.4609 63.9583 25.9922 63.7344C25.5286 63.5052 25 63.3906 24.4062 63.3906C23.8125 63.3906 23.2839 63.5052 22.8203 63.7344C22.3568 63.9635 21.9635 64.2708 21.6406 64.6562C21.3177 65.0469 21.0703 65.5 20.8984 66.0156C20.7266 66.5312 20.6406 67.0755 20.6406 67.6484ZM21.5703 67.8984V67.6484C21.5755 67.2057 21.638 66.776 21.7578 66.3594C21.8828 65.9427 22.0651 65.5755 22.3047 65.2578C22.5443 64.9349 22.8385 64.6771 23.1875 64.4844C23.5417 64.2917 23.9479 64.1953 24.4062 64.1953C24.8646 64.1953 25.2682 64.2917 25.6172 64.4844C25.9714 64.6771 26.2682 64.9349 26.5078 65.2578C26.7474 65.5755 26.9297 65.9427 27.0547 66.3594C27.1797 66.776 27.2448 67.2057 27.25 67.6484V67.8984C27.2448 68.3464 27.1797 68.7786 27.0547 69.1953C26.9349 69.612 26.7552 69.9818 26.5156 70.3047C26.276 70.6224 25.9818 70.8776 25.6328 71.0703C25.2839 71.263 24.8802 71.3594 24.4219 71.3594C23.9583 71.3594 23.5495 71.263 23.1953 71.0703C22.8411 70.8776 22.5443 70.6224 22.3047 70.3047C22.0651 69.9818 21.8828 69.612 21.7578 69.1953C21.638 68.7786 21.5755 68.3464 21.5703 67.8984ZM30.4609 67.6953V67.8594C30.4609 68.4115 30.5312 68.9531 30.6719 69.4844C30.8125 70.0104 31.0286 70.4714 31.3203 70.8672C31.5964 71.2578 31.9401 71.5703 32.3516 71.8047C32.763 72.0391 33.2474 72.1562 33.8047 72.1562C34.0859 72.1562 34.3568 72.1224 34.6172 72.0547C34.8828 71.9922 35.1302 71.901 35.3594 71.7812C35.5521 71.6823 35.7292 71.5651 35.8906 71.4297C36.0573 71.2891 36.2031 71.1302 36.3281 70.9531V71.8828C36.3281 72.2839 36.2708 72.6484 36.1562 72.9766C36.0469 73.3047 35.888 73.5859 35.6797 73.8203C35.4609 74.0599 35.1953 74.2448 34.8828 74.375C34.5755 74.5052 34.2214 74.5703 33.8203 74.5703C33.5651 74.5703 33.3203 74.5365 33.0859 74.4688C32.8568 74.4062 32.638 74.3125 32.4297 74.1875C32.2578 74.0938 32.0885 73.9766 31.9219 73.8359C31.7604 73.6953 31.6042 73.5339 31.4531 73.3516L30.9297 73.9219C31.0964 74.151 31.2865 74.349 31.5 74.5156C31.7188 74.6875 31.9453 74.8307 32.1797 74.9453C32.4557 75.0859 32.7396 75.1901 33.0312 75.2578C33.3229 75.3307 33.6068 75.3672 33.8828 75.3672C34.4036 75.3672 34.8724 75.2812 35.2891 75.1094C35.7057 74.9375 36.0599 74.6953 36.3516 74.3828C36.6432 74.0755 36.8672 73.7057 37.0234 73.2734C37.1849 72.8464 37.2656 72.3724 37.2656 71.8516V63.5469H36.3984L36.3594 64.7266C36.2396 64.5443 36.1016 64.3776 35.9453 64.2266C35.7943 64.0755 35.6276 63.9453 35.4453 63.8359C35.2161 63.6901 34.9635 63.5807 34.6875 63.5078C34.4167 63.4297 34.1276 63.3906 33.8203 63.3906C33.2318 63.3906 32.724 63.5156 32.2969 63.7656C31.875 64.0156 31.5286 64.3438 31.2578 64.75C30.987 65.151 30.7865 65.6042 30.6562 66.1094C30.526 66.6146 30.4609 67.1432 30.4609 67.6953ZM31.3984 67.8594V67.6953C31.3984 67.2786 31.4427 66.8672 31.5312 66.4609C31.6198 66.0547 31.7604 65.6901 31.9531 65.3672C32.1562 65.0286 32.4245 64.7526 32.7578 64.5391C33.0911 64.3203 33.5052 64.2109 34 64.2109C34.276 64.2109 34.5339 64.2526 34.7734 64.3359C35.0182 64.4141 35.2396 64.526 35.4375 64.6719C35.6354 64.8177 35.8099 64.9896 35.9609 65.1875C36.112 65.3854 36.2344 65.6068 36.3281 65.8516V69.8203C36.2344 70.0547 36.1068 70.2656 35.9453 70.4531C35.7891 70.6406 35.6094 70.7995 35.4062 70.9297C35.2031 71.0599 34.9818 71.1589 34.7422 71.2266C34.5026 71.2943 34.25 71.3281 33.9844 71.3281C33.526 71.3281 33.1328 71.2344 32.8047 71.0469C32.4766 70.8542 32.2135 70.599 32.0156 70.2812C31.8021 69.9583 31.6458 69.5833 31.5469 69.1562C31.4531 68.724 31.4036 68.2917 31.3984 67.8594ZM45.7734 68.3281V60.625H44.75L39.4844 68.5859V69.125H44.8359V72H45.7734V69.125H47.5469V68.3281H45.7734ZM40.6172 68.3281L44.3906 62.5938L44.8359 61.8359V68.3281H40.6172Z" fill="#C23949"/>
</svg>
